<svg xmlns="http://www.w3.org/2000/svg" viewBox="0 0 1200 220" preserveAspectRatio="none">
  <g fill="#1c2a5e">
    <path d="M40 0 H78 L74 90 Q70 110 59 110 Q48 110 44 90 Z"/>
    <path d="M130 0 H160 L156 60 Q154 72 145 72 Q136 72 134 60 Z"/>
    <path d="M210 0 H252 L248 140 Q244 162 231 162 Q218 162 214 140 Z"/>
    <path d="M310 0 H336 L334 50 Q332 60 323 60 Q314 60 312 50 Z"/>
    <path d="M390 0 H432 L428 110 Q424 128 411 128 Q398 128 394 110 Z"/>
    <path d="M490 0 H516 L514 80 Q512 92 503 92 Q494 92 492 80 Z"/>
    <path d="M580 0 H626 L622 170 Q618 195 603 195 Q588 195 584 170 Z"/>
    <path d="M680 0 H708 L706 70 Q704 82 694 82 Q684 82 682 70 Z"/>
    <path d="M760 0 H802 L798 130 Q794 150 781 150 Q768 150 764 130 Z"/>
    <path d="M860 0 H888 L886 55 Q884 66 874 66 Q864 66 862 55 Z"/>
    <path d="M940 0 H982 L978 105 Q974 122 961 122 Q948 122 944 105 Z"/>
    <path d="M1040 0 H1068 L1066 75 Q1064 87 1054 87 Q1044 87 1042 75 Z"/>
    <path d="M1110 0 H1152 L1148 155 Q1144 178 1131 178 Q1118 178 1114 155 Z"/>
  </g>
</svg>
