<?xml version="1.0" encoding="UTF-8" standalone="no"?>
<!-- Created with Inkscape (http://www.inkscape.org/) -->

<svg
   version="1.1"
   id="svg1"
   width="240"
   height="162.66667"
   viewBox="0 0 240 162.66667"
   sodipodi:docname="WTP spray paint2.svg"
   inkscape:version="1.4.4 (dcaf3e7, 2026-05-05)"
   xmlns:inkscape="http://www.inkscape.org/namespaces/inkscape"
   xmlns:sodipodi="http://sodipodi.sourceforge.net/DTD/sodipodi-0.dtd"
   xmlns="http://www.w3.org/2000/svg"
   xmlns:svg="http://www.w3.org/2000/svg">
  <defs
     id="defs1">
    <linearGradient
       id="swatch50"
       inkscape:swatch="solid">
      <stop
         style="stop-color:#323e66;stop-opacity:1;"
         offset="0"
         id="stop51" />
    </linearGradient>
    <linearGradient
       id="swatch3"
       inkscape:swatch="solid">
      <stop
         style="stop-color:#000000;stop-opacity:1;"
         offset="0"
         id="stop3" />
    </linearGradient>
  </defs>
  <sodipodi:namedview
     id="namedview1"
     pagecolor="#ffffff"
     bordercolor="#000000"
     borderopacity="0.25"
     inkscape:showpageshadow="2"
     inkscape:pageopacity="0.0"
     inkscape:pagecheckerboard="0"
     inkscape:deskcolor="#d1d1d1"
     inkscape:zoom="3.4341045"
     inkscape:cx="154.62546"
     inkscape:cy="43.679509"
     inkscape:window-width="1920"
     inkscape:window-height="992"
     inkscape:window-x="-8"
     inkscape:window-y="1792"
     inkscape:window-maximized="1"
     inkscape:current-layer="g1" />
  <g
     inkscape:groupmode="layer"
     inkscape:label="Image"
     id="g1">
    <path
       style="fill:#323e66;fill-opacity:1;fill-rule:nonzero;stroke:#1d284f;stroke-linecap:butt;stroke-linejoin:bevel;stroke-dasharray:none;stroke-dashoffset:0;stroke-opacity:1;paint-order:normal"
       d="m 205.79213,30.458109 c -1.13923,-1.372696 -1.00252,-4.26156 0.55123,-11.647818 2.27481,-10.8140609 3.16731,-12.3354026 6.82894,-11.6403863 3.93026,0.7460061 3.67671,6.6587583 -0.6994,16.3100643 -2.19546,4.841967 -4.2559,8.803576 -4.57876,8.803576 -0.32287,0 -1.26877,-0.821446 -2.10201,-1.825436 z"
       id="path45" />
    <path
       style="fill:#323e66;fill-opacity:1;fill-rule:nonzero;stroke:#1d284f;stroke-linecap:butt;stroke-linejoin:bevel;stroke-dasharray:none;stroke-dashoffset:0;stroke-opacity:1;paint-order:normal"
       d="m 215.82685,34.270755 c -0.88301,-2.301071 1.11964,-14.242744 3.27993,-19.55807 1.80495,-4.441017 4.21519,-5.4506461 7.41088,-3.104359 2.38426,1.750529 2.38617,2.025783 0.0598,8.617092 -2.73737,7.755961 -7.34872,16.058127 -8.9193,16.058127 -0.58244,0 -1.40655,-0.905755 -1.83136,-2.01279 z"
       id="path44" />
    <path
       style="fill:#323e66;fill-opacity:1;fill-rule:nonzero;stroke:#1d284f;stroke-linecap:butt;stroke-linejoin:bevel;stroke-dasharray:none;stroke-dashoffset:0;stroke-opacity:1;paint-order:normal"
       d="m 216.31392,42.204856 c 0,-1.143279 0.60979,-1.70182 1.35509,-1.241202 0.74529,0.460618 1.00988,1.396028 0.58797,2.078689 -1.14298,1.849391 -1.94306,1.504548 -1.94306,-0.837487 z"
       id="path43" />
    <path
       style="fill:#323e66;fill-opacity:1;fill-rule:nonzero;stroke:#1d284f;stroke-linecap:butt;stroke-linejoin:bevel;stroke-dasharray:none;stroke-dashoffset:0;stroke-opacity:1;paint-order:normal"
       d="m 179.03369,57.014196 c -2.12535,-2.560899 -0.63153,-6.935037 2.6626,-7.79647 1.44505,-0.377891 3.9072,0.349264 5.47143,1.615901 l 2.84405,2.302977 -3.6954,2.906804 c -4.36073,3.430155 -5.15384,3.535877 -7.28268,0.970788 z"
       id="path42" />
    <path
       style="fill:#323e66;fill-opacity:1;fill-rule:nonzero;stroke:#1d284f;stroke-linecap:butt;stroke-linejoin:bevel;stroke-dasharray:none;stroke-dashoffset:0;stroke-opacity:1;paint-order:normal"
       d="m 37.617662,76.031095 c -5.255971,-7.255658 -6.264285,-11.358431 -3.476605,-14.146111 2.824189,-2.824189 4.574907,-1.060465 9.197911,9.26624 2.451633,5.476374 2.972597,7.934681 1.907279,9 -2.340479,2.340479 -3.339339,1.801003 -7.628585,-4.120129 z"
       id="path41" />
    <path
       style="fill:#323e66;fill-opacity:1;fill-rule:nonzero;stroke:#1d284f;stroke-linecap:butt;stroke-linejoin:bevel;stroke-dasharray:none;stroke-dashoffset:0;stroke-opacity:1;paint-order:normal"
       d="m 29.922965,84.890368 c -3.881694,-4.36431 -7.409484,-9.337027 -7.839533,-11.05048 -0.898022,-3.578004 2.333046,-7.647273 5.198867,-6.547554 3.268798,1.254355 10.571518,16.611969 10.115331,21.272531 l -0.417039,4.260614 z"
       id="path40" />
    <path
       style="fill:#323e66;fill-opacity:1;fill-rule:nonzero;stroke:#1d284f;stroke-linecap:butt;stroke-linejoin:bevel;stroke-dasharray:none;stroke-dashoffset:0;stroke-opacity:1;paint-order:normal"
       d="m 14.171974,93.061091 c -1.103574,-2.875867 0.431909,-6.458669 2.475985,-5.777311 0.916281,0.305427 1.665965,1.955322 1.665965,3.666433 0,3.654442 -2.968998,5.167543 -4.14195,2.110878 z"
       id="path39" />
    <path
       style="fill:#323e66;fill-opacity:1;fill-rule:nonzero;stroke:#1d284f;stroke-linecap:butt;stroke-linejoin:bevel;stroke-dasharray:none;stroke-dashoffset:0;stroke-opacity:1;paint-order:normal"
       d="m 70.661303,105.85619 c -0.450859,-0.7295 -0.303493,-2.72193 0.32748,-4.42761 l 1.147223,-3.101237 0.987812,3.112317 c 1.033486,3.25623 -0.96472,6.84002 -2.462515,4.41653 z"
       id="path38" />
    <path
       style="fill:#323e66;fill-opacity:1;fill-rule:nonzero;stroke:#1d284f;stroke-linecap:butt;stroke-linejoin:bevel;stroke-dasharray:none;stroke-dashoffset:0;stroke-opacity:1;paint-order:normal"
       d="m 136.61199,137.20957 c -1.30786,-3.43994 0.17665,-13.73461 2.28452,-15.84248 2.13694,-2.13694 4.86693,12.66837 2.98452,16.18568 -1.91748,3.58286 -3.82356,3.4587 -5.26904,-0.3432 z"
       id="path37" />
    <path
       style="fill:#323e66;fill-opacity:1;fill-rule:nonzero;stroke:#1d284f;stroke-linecap:butt;stroke-linejoin:bevel;stroke-dasharray:none;stroke-dashoffset:0;stroke-opacity:1;paint-order:normal"
       d="m 96.823837,139.28102 c -0.593279,-0.91666 -1.078689,-12.41446 -1.078689,-25.55065 0,-17.9646 -0.414537,-24.023388 -1.672601,-24.446431 -0.919931,-0.30934 -5.099056,-7.561546 -9.286945,-16.116014 L 77.171259,57.614347 76.390027,72.947681 c -0.429677,8.433333 -1.559089,16.900434 -2.509805,18.815778 l -1.728573,3.482445 -3.275166,-3.035321 C 64.869413,88.496956 47.970927,47.103939 49.060477,43.671071 c 0.414012,-1.304436 1.926177,-3.433639 3.360366,-4.731563 3.94517,-3.570329 5.683747,-1.141934 9.965949,13.920158 2.081989,7.323127 4.14541,13.0923 4.585381,12.820383 0.439971,-0.271917 0.988157,-4.297939 1.218192,-8.946715 0.536005,-10.832126 2.468663,-21.00701 4.44173,-23.384409 2.952684,-3.557767 6.910035,-1.433072 9.18626,4.932088 1.180102,3.3 3.807273,10.65 5.838156,16.333334 2.030884,5.683333 4.231643,10.333333 4.890576,10.333333 1.710924,0 1.518669,-26.311142 -0.200017,-27.373348 -0.974229,-0.602107 -0.974758,-1.374129 -0.0017,-2.546539 0.767984,-0.925364 1.746779,-4.621948 2.175101,-8.21463 1.036017,-8.689924 3.035538,-13.670413 6.159479,-15.342299 4.37989,-2.3440453 6.78471,0.920982 5.75176,7.809183 l -0.87254,5.818514 5.18034,-3.270206 c 24.6572,-15.5654305 50.92569,-22.47308216 67.32798,-17.7048057 13.61836,3.9589646 19.19774,11.6761657 15.25825,21.1046857 -2.36031,5.649013 -9.35178,11.07919 -21.86748,16.984156 -9.47782,4.471678 -9.6336,4.628013 -10.52327,10.560781 -0.49668,3.312051 -0.50649,13.923584 -0.0218,23.581183 0.76728,15.288894 0.60079,17.792012 -1.28768,19.359303 -1.85226,1.537239 -2.43478,1.436422 -3.99007,-0.690559 -1.36809,-1.870969 -1.59791,-5.00972 -0.92379,-12.616338 0.98178,-11.078022 1.00752,-12.05182 0.60253,-22.792414 -0.3868,-10.258332 -1.39708,-11.45195 -7.03394,-8.310375 l -4.53507,2.527516 -0.83037,14.558097 c -0.4567,8.006953 -0.9067,20.972686 -1,28.81274 -0.16182,13.598065 -1.34874,17.766255 -4.23671,14.878285 -0.64244,-0.64244 -1.8331,-12.560165 -2.64591,-26.483835 -0.81282,-13.923669 -1.89063,-25.973076 -1.9604,-26.860351 -0.42327,-5.382686 -2.99189,1.866799 -5.98864,3.693225 -5.98768,3.649302 -7.02126,1.247799 -7.37588,14.368329 -0.14468,5.352624 -0.9507,13.449703 -1.07302,17.483037 -0.28548,9.413145 -3.54496,10.260395 -2.88907,0.96579 0.26414,-3.743138 -0.0382,-8.236612 -0.72028,-10.242131 -0.72192,-2.122586 -0.40663,-4.629211 -0.72027,-7.0728 -0.70969,-5.52924 -2.55573,-4.785915 -6.7127,1.495692 -4.38814,6.630931 -6.78595,23.025444 -4.65473,41.774424 0.96877,8.52261 1.02711,14.08256 0.17136,16.33334 -1.38114,3.63269 -4.502297,4.49965 -6.284693,1.74569 z M 110.72636,71.524603 c 4.82478,-2.785587 1.76848,-7.699952 1.39629,-22.994082 l -0.3775,-15.512374 -4.33333,3.394737 -4.33334,3.394737 v 15.903363 c 0,8.74685 1.10547,20.131777 1.7016,20.131777 0.59614,0 3.44908,-2.876398 5.94628,-4.318158 z M 129.74515,55.32203 c -0.55861,0.0011 -0.4908,0.05097 -1.22413,0.05097 -2.59919,0 -1.39357,-5.0626 1.92582,-7.237548 3.21069,-2.103721 3.35953,-2.760511 3.17966,-14.030737 -0.10379,-6.503037 -0.56955,-11.821461 -1.03503,-11.81872 -0.46547,0.0027 -2.7484,1.164783 -5.07317,2.582314 -3.68148,2.24479 -4.31986,3.491388 -4.94769,9.661683 -1.34352,13.204075 -2.72286,28.109633 -2.10411,28.714847 0.91496,0.894953 17.60166,-7.939885 9.27865,-7.922809 z m 26.18811,-22.583555 c 0.82147,-5.137217 3.12732,-7.170029 3.16564,-2.790796 0.051,5.833026 2.015,6.159498 10.34499,1.71966 4.40502,-2.347852 9.72201,-6.056684 11.81553,-8.241849 l 3.8064,-3.973026 -3.327,-2.536476 c -6.40778,-4.885234 -22.08402,-5.112447 -34.17379,-0.495319 -5.79833,2.2144 -7.0196,3.628162 -4.48655,5.193677 0.73334,0.453225 1.33334,5.240368 1.33334,10.638096 v 9.81405 l 5.35103,-2.101944 c 4.65504,-1.828555 5.4576,-2.768415 6.17041,-7.226073 z"
       id="path1"
       sodipodi:nodetypes="sssscsscssssssssssscssscssssssssssscsssssssssssssssssscccssscssscssscscsscsssscss" />
  </g>
</svg>
